<svg width="1024" height="1024" viewBox="0 0 1024 1024" fill="none" xmlns="http://www.w3.org/2000/svg">
<path d="M0 68.2667C0 30.564 30.564 0 68.2667 0H955.733C993.436 0 1024 30.564 1024 68.2667V955.733C1024 993.436 993.436 1024 955.733 1024H68.2667C30.564 1024 0 993.436 0 955.733V68.2667Z" fill="#4F299D"/>
<path d="M0 68.2667C0 30.564 30.564 0 68.2667 0H955.733C993.436 0 1024 30.564 1024 68.2667V955.733C1024 993.436 993.436 1024 955.733 1024H68.2667C30.564 1024 0 993.436 0 955.733V68.2667Z" fill="#4F299D"/>
<path fill-rule="evenodd" clip-rule="evenodd" d="M741.499 551.08C800.233 521.064 830.417 482.67 830.417 445.098C830.417 407.525 800.233 369.131 741.499 339.115C683.682 309.568 602.619 290.79 512.146 290.79C421.673 290.79 340.61 309.568 282.793 339.115C224.059 369.131 193.875 407.525 193.875 445.098C193.875 482.67 224.059 521.064 282.793 551.08C340.61 580.627 421.673 599.405 512.146 599.405C602.619 599.405 683.682 580.627 741.499 551.08ZM512.146 616.472C697.348 616.472 847.483 539.745 847.483 445.098C847.483 350.45 697.348 273.724 512.146 273.724C326.944 273.724 176.809 350.45 176.809 445.098C176.809 539.745 326.944 616.472 512.146 616.472Z" fill="white"/>
<path d="M311.854 264.625H415.035V341.97H311.854V264.625Z" fill="#4F299D"/>
<path d="M603.188 554.292H706.368V631.638H603.188V554.292Z" fill="#4F299D"/>
<path d="M818.719 437.451C822.907 437.486 826.273 440.91 826.238 445.097C826.202 449.285 822.779 452.651 818.591 452.616L700.236 451.622C696.048 451.587 692.682 448.164 692.717 443.976C692.752 439.788 696.176 436.422 700.363 436.457L818.719 437.451Z" fill="white"/>
<path d="M327.093 437.451C331.281 437.486 334.647 440.91 334.612 445.097C334.577 449.285 331.154 452.651 326.966 452.616L208.61 451.622C204.423 451.587 201.056 448.164 201.091 443.976C201.127 439.788 204.55 436.422 208.738 436.457L327.093 437.451Z" fill="white"/>
<path fill-rule="evenodd" clip-rule="evenodd" d="M412.367 677.173C444.1 735.048 483.397 764.137 521.011 763.049C558.625 761.962 596.176 730.653 624.514 671.042C652.411 612.36 668.858 530.74 666.243 440.251C663.628 349.762 642.494 269.227 611.255 212.254C579.522 154.38 540.224 125.291 502.611 126.378C464.997 127.465 427.446 158.775 399.107 218.385C371.211 277.068 354.763 358.688 357.379 449.177C359.994 539.666 381.127 620.2 412.367 677.173ZM340.319 449.67C345.672 634.904 426.792 782.846 521.504 780.109C616.216 777.372 688.656 624.991 683.303 439.758C677.949 254.524 596.83 106.581 502.118 109.318C407.405 112.056 334.966 264.436 340.319 449.67Z" fill="white"/>
<path fill-rule="evenodd" clip-rule="evenodd" d="M510.293 767.999C692.209 767.999 839.68 620.527 839.68 438.612C839.68 256.697 692.209 109.225 510.293 109.225C328.378 109.225 180.907 256.697 180.907 438.612C180.907 620.527 328.378 767.999 510.293 767.999ZM510.293 785.065C701.634 785.065 856.747 629.953 856.747 438.612C856.747 247.271 701.634 92.1587 510.293 92.1587C318.952 92.1587 163.84 247.271 163.84 438.612C163.84 629.953 318.952 785.065 510.293 785.065Z" fill="white"/>
<path d="M499.177 144.034C499.177 139.941 502.495 136.624 506.588 136.624C510.681 136.624 513.999 139.941 513.999 144.034V257.048C513.999 261.141 510.681 264.459 506.588 264.459C502.495 264.459 499.177 261.141 499.177 257.048V144.034Z" fill="white"/>
<path d="M499.177 308.926C499.177 304.833 502.495 301.515 506.588 301.515C510.681 301.515 513.999 304.833 513.999 308.926V733.192C513.999 737.285 510.681 740.603 506.588 740.603C502.495 740.603 499.177 737.285 499.177 733.192V308.926Z" fill="white"/>
<path d="M654.61 438.569C658.802 438.609 662.167 442.041 662.126 446.234C662.086 450.426 658.654 453.791 654.461 453.75L371.334 450.989C367.142 450.948 363.776 447.516 363.817 443.324C363.858 439.132 367.29 435.766 371.482 435.807L654.61 438.569Z" fill="white"/>
<path d="M203.337 868.489H219.227L245.39 913.767H246.345L272.509 868.489H288.517V954.027H272.509V911.856L273.464 897.52H272.509L250.766 935.868H241.089L219.227 897.52H218.271L219.227 911.856V954.027H203.337V868.489Z" fill="white"/>
<path d="M336.952 914.245L308.16 868.489H327.394L344.478 896.803H345.434L361.92 868.489H381.393L353.08 914.245V954.027H336.952V914.245Z" fill="white"/>
<path d="M436.759 954.027V868.489H466.865C470.927 868.489 474.71 869.166 478.214 870.52C481.798 871.794 484.905 873.626 487.533 876.016C490.161 878.405 492.232 881.272 493.745 884.617C495.258 887.883 496.015 891.506 496.015 895.489C496.015 899.55 495.258 903.254 493.745 906.599C492.232 909.864 490.161 912.692 487.533 915.081C484.905 917.47 481.798 919.342 478.214 920.696C474.71 921.97 470.927 922.608 466.865 922.608H452.888V954.027H436.759ZM467.104 907.316C471.325 907.316 474.511 906.121 476.661 903.732C478.812 901.342 479.887 898.595 479.887 895.489C479.887 893.975 479.608 892.502 479.051 891.068C478.573 889.635 477.776 888.4 476.661 887.365C475.626 886.25 474.312 885.374 472.719 884.737C471.126 884.099 469.254 883.781 467.104 883.781H452.888V907.316H467.104Z" fill="white"/>
<path d="M517.017 868.489H533.145V938.736H569.343V954.027H517.017V868.489Z" fill="white"/>
<path d="M629.14 955.939C622.768 955.939 616.835 954.784 611.339 952.474C605.924 950.164 601.225 947.019 597.242 943.036C593.26 938.974 590.114 934.236 587.805 928.82C585.575 923.324 584.459 917.47 584.459 911.258C584.459 905.046 585.575 899.232 587.805 893.816C590.114 888.321 593.26 883.582 597.242 879.6C601.225 875.538 605.924 872.352 611.339 870.042C616.835 867.732 622.768 866.578 629.14 866.578C635.512 866.578 641.405 867.732 646.821 870.042C652.317 872.352 657.055 875.538 661.038 879.6C665.02 883.582 668.126 888.321 670.356 893.816C672.666 899.232 673.821 905.046 673.821 911.258C673.821 917.47 672.666 923.324 670.356 928.82C668.126 934.236 665.02 938.974 661.038 943.036C657.055 947.019 652.317 950.164 646.821 952.474C641.405 954.784 635.512 955.939 629.14 955.939ZM629.14 940.647C633.122 940.647 636.826 939.93 640.25 938.497C643.755 937.063 646.781 935.072 649.33 932.523C651.958 929.975 653.989 926.908 655.423 923.324C656.936 919.661 657.693 915.639 657.693 911.258C657.693 906.878 656.936 902.896 655.423 899.312C653.989 895.648 651.958 892.542 649.33 889.993C646.781 887.444 643.755 885.453 640.25 884.02C636.826 882.586 633.122 881.869 629.14 881.869C625.158 881.869 621.415 882.586 617.91 884.02C614.485 885.453 611.459 887.444 608.831 889.993C606.282 892.542 604.251 895.648 602.738 899.312C601.304 902.896 600.587 906.878 600.587 911.258C600.587 915.639 601.304 919.661 602.738 923.324C604.251 926.908 606.282 929.975 608.831 932.523C611.459 935.072 614.485 937.063 617.91 938.497C621.415 939.93 625.158 940.647 629.14 940.647Z" fill="white"/>
<path d="M710.974 954.027V883.781H687.08V868.489H750.995V883.781H727.102V954.027H710.974Z" fill="white"/>
<path d="M797.019 955.939C793.355 955.939 789.851 955.421 786.506 954.386C783.161 953.35 780.094 951.797 777.307 949.726C774.519 947.656 772.09 945.147 770.019 942.2C767.948 939.174 766.316 935.669 765.121 931.687L780.293 925.714C781.408 930.014 783.36 933.598 786.147 936.466C788.935 939.253 792.598 940.647 797.138 940.647C798.811 940.647 800.404 940.448 801.917 940.05C803.51 939.572 804.903 938.935 806.098 938.138C807.372 937.262 808.368 936.187 809.085 934.913C809.802 933.638 810.16 932.165 810.16 930.492C810.16 928.899 809.881 927.466 809.324 926.192C808.766 924.917 807.811 923.723 806.457 922.608C805.182 921.492 803.47 920.417 801.319 919.382C799.249 918.347 796.66 917.271 793.554 916.156L788.298 914.245C785.988 913.448 783.638 912.373 781.249 911.019C778.939 909.665 776.829 908.033 774.917 906.121C773.006 904.21 771.413 901.98 770.139 899.431C768.944 896.803 768.347 893.856 768.347 890.59C768.347 887.245 768.984 884.139 770.258 881.272C771.612 878.325 773.484 875.777 775.873 873.626C778.342 871.396 781.249 869.684 784.594 868.489C788.019 867.215 791.802 866.578 795.943 866.578C800.244 866.578 803.948 867.175 807.054 868.37C810.24 869.485 812.908 870.958 815.058 872.79C817.288 874.542 819.08 876.493 820.434 878.644C821.788 880.794 822.784 882.825 823.421 884.737L809.204 890.71C808.408 888.321 806.934 886.17 804.784 884.259C802.713 882.347 799.846 881.392 796.182 881.392C792.678 881.392 789.771 882.228 787.461 883.9C785.152 885.493 783.997 887.604 783.997 890.232C783.997 892.781 785.112 894.971 787.342 896.803C789.572 898.555 793.116 900.267 797.974 901.94L803.35 903.732C806.775 904.926 809.881 906.32 812.669 907.913C815.536 909.426 817.965 911.258 819.956 913.409C822.027 915.559 823.58 918.028 824.616 920.816C825.73 923.523 826.288 926.669 826.288 930.253C826.288 934.713 825.372 938.576 823.54 941.842C821.788 945.027 819.518 947.656 816.731 949.726C813.943 951.797 810.797 953.35 807.293 954.386C803.788 955.421 800.364 955.939 797.019 955.939Z" fill="white"/>
</svg>
