<svg width="436" height="594" viewBox="0 0 436 594" fill="none" xmlns="http://www.w3.org/2000/svg">
<path d="M248.76 587.889C291.279 581.318 333.897 571.647 366.711 543.819C401.337 514.454 429.422 474.932 435.073 429.883C440.633 385.558 417.564 344.4 396.68 304.91C376.167 266.122 355.623 223.992 316.105 204.923C276.97 186.039 231.407 195.48 188.934 204.662C148.756 213.349 111.709 229.651 80.112 255.945C45.864 284.445 10.2514 316.523 1.91667 360.292C-6.51239 404.556 14.3159 448.178 35.9823 487.687C57.0223 526.054 83.613 562.811 123.2 581.453C162.066 599.756 206.304 594.45 248.76 587.889Z" fill="#4F299D" fill-opacity="0.6"/>
<g filter="url(#filter0_d_1994_267)">
<path d="M305.459 529.527L130.985 529.424C110 529.413 92.996 512.395 93 491.411L93.0867 53.9986C93.0907 33.0026 110.117 15.988 131.113 16L305.589 16.1027C326.573 16.1147 343.576 33.132 343.572 54.116L343.487 491.529C343.484 512.525 326.455 529.54 305.459 529.527Z" fill="black"/>
<path d="M305.404 31.5736L271.577 31.5536C267.041 31.5523 263.361 35.3949 263.361 40.1363L263.359 46.2722C263.36 51.0149 259.68 54.8576 255.144 54.8549L189.207 54.8163C184.671 54.8136 180.992 50.9656 180.993 46.2243L180.995 40.0883C180.996 35.3456 177.319 31.4976 172.781 31.4962L160.885 31.4883L131.277 31.4709C116.573 31.4629 104.649 43.3789 104.645 58.0843L104.561 485.03C104.559 499.727 116.467 511.644 131.163 511.654L305.289 511.755C319.992 511.764 331.919 499.848 331.923 485.143L332.005 58.1962C332.008 43.5002 320.1 31.5829 305.404 31.5736Z" fill="white"/>
<path d="M141.353 292.284V300.539H149.607V292.284V284.03H141.353V292.284Z" fill="black" fill-opacity="0.8"/>
<path d="M141.353 251.009H149.606V242.755H141.353V251.009Z" fill="black" fill-opacity="0.8"/>
<path d="M192.364 341.897H200.617V333.644H192.364V341.897Z" fill="black" fill-opacity="0.8"/>
<path d="M149.607 259.264V267.519H141.354V275.774H149.607V284.03H157.862H166.118V292.284H174.372V284.03H182.628V275.774V267.519H174.372V275.774H166.118H157.862V267.519V259.264V251.01H149.607V259.264Z" fill="black" fill-opacity="0.8"/>
<path d="M166.117 242.754H157.863V251.009H166.117H174.372V242.754H166.117Z" fill="black" fill-opacity="0.8"/>
<path d="M203.265 309.116H207.701V300.861H203.265H198.83V309.116H203.265Z" fill="black" fill-opacity="0.8"/>
<path d="M174.373 259.264H182.628V251.009H174.373V259.264Z" fill="black" fill-opacity="0.8"/>
<path d="M232.157 292.284H240.412V284.029H232.157V292.284Z" fill="black" fill-opacity="0.8"/>
<path d="M248.668 193.224H240.413V201.479H248.668V193.224Z" fill="black" fill-opacity="0.8"/>
<path d="M199.137 259.264V251.01H207.392V242.755H199.137V234.5H190.884V242.755H182.628V251.01H190.884V259.264V267.519V275.774V284.03H199.137V275.774V267.519H207.392V259.264H199.137Z" fill="black" fill-opacity="0.8"/>
<path d="M240.412 341.814H248.666V333.56H240.412H232.158V341.814H240.412Z" fill="black" fill-opacity="0.8"/>
<path d="M223.902 201.48H232.157V193.225H223.902V201.48Z" fill="black" fill-opacity="0.8"/>
<path d="M230.094 259.264V251.01H221.84V242.755H213.584V251.01V259.264H205.329V267.519H213.584H221.84V259.264H230.094Z" fill="black" fill-opacity="0.8"/>
<path d="M268.433 251.009H276.686V242.755H268.433V251.009Z" fill="black" fill-opacity="0.8"/>
<path d="M182.865 292.284H191.12V284.029H182.865V292.284Z" fill="black" fill-opacity="0.8"/>
<path d="M223.903 234.5V226.245H232.157V217.989H240.412H248.667V209.735H240.412V201.48H232.157V209.735H223.903V217.989H215.648V226.245H207.392V234.5H215.648H223.903Z" fill="black" fill-opacity="0.8"/>
<path d="M223.903 292.284V284.03H232.156V275.774H223.903H215.648V284.03H207.392V292.284H215.648H223.903Z" fill="black" fill-opacity="0.8"/>
<path d="M248.667 325.299V317.045H240.412H232.158V308.79H223.903V317.045H215.647V325.299H207.392H199.138V333.554H207.392H215.647H223.903V325.299H232.158V333.554H240.412V325.299H248.667Z" fill="black" fill-opacity="0.8"/>
<path d="M215.647 201.48V193.225H207.393H199.137V201.48H190.883V209.734H199.137H207.393V201.48H215.647Z" fill="black" fill-opacity="0.8"/>
<path d="M215.648 209.735H207.393V217.989H215.648V209.735Z" fill="black" fill-opacity="0.8"/>
<path d="M236.285 242.754H228.031V251.009V259.264V267.52H236.285H244.539V259.264H236.285V251.009H244.539V242.754H252.795V234.5H244.539V226.245H236.285V234.5V242.754Z" fill="black" fill-opacity="0.8"/>
<path d="M199.137 226.245H207.392V217.991H199.137V226.245Z" fill="black" fill-opacity="0.8"/>
<path d="M232.157 300.54V308.794H240.411H248.667V300.54H256.922H265.178V292.285H256.922H248.667H240.411V300.54H232.157Z" fill="black" fill-opacity="0.8"/>
<path d="M276.686 267.52H268.433V275.775H276.686V267.52Z" fill="black" fill-opacity="0.8"/>
<path d="M248.668 275.773H240.413V284.028H248.668V275.773Z" fill="black" fill-opacity="0.8"/>
<path d="M269.305 251.01H261.05H252.794V259.264H261.05V267.519H269.305V259.264V251.01Z" fill="black" fill-opacity="0.8"/>
<path d="M256.922 284.029H265.177V275.775H256.922V284.029Z" fill="black" fill-opacity="0.8"/>
<path d="M192.792 319.268H172.153V298.631H192.792V319.268ZM174.373 325.459H199.146V292.275H165.962V300.54H157.862V308.795H165.962V317.049H157.862V325.304H165.962V325.459H166.117V333.559H157.862V341.815V350.069H166.117V341.815H174.373V333.559V325.459Z" fill="black" fill-opacity="0.8"/>
<path d="M281.687 292.284H289.941V284.03H281.687H273.433H265.177V292.284H273.433H281.687Z" fill="black" fill-opacity="0.8"/>
<path d="M281.687 259.264H289.941V251.01V242.755H281.687V251.01V259.264Z" fill="black" fill-opacity="0.8"/>
<path d="M215.956 300.861H207.701V309.115V317.37H215.956V309.115V300.861Z" fill="black" fill-opacity="0.8"/>
<path d="M298.197 292.284H289.942V300.539H298.197V292.284Z" fill="black" fill-opacity="0.8"/>
<path d="M298.197 275.774V267.519H289.942V275.774V284.029H298.197V275.774Z" fill="black" fill-opacity="0.8"/>
<path d="M149.608 333.559H141.354V341.814V350.07H149.608V341.814V333.559Z" fill="black" fill-opacity="0.8"/>
<path d="M263.114 199.416H292.006V228.308H263.114V199.416ZM298.197 193.224H256.922V234.5H298.197V193.224Z" fill="black" fill-opacity="0.8"/>
<path d="M285.814 205.607H269.305V222.116H285.814V205.607Z" fill="black" fill-opacity="0.8"/>
<path d="M263.114 314.985H292.006V343.877H263.114V314.985ZM298.197 308.795H256.922V350.071H298.197V308.795Z" fill="black" fill-opacity="0.8"/>
<path d="M285.814 321.176H269.305V337.687H285.814V321.176Z" fill="black" fill-opacity="0.8"/>
<path d="M176.334 228.308H147.441V199.416H176.334V228.308ZM141.249 234.5H182.525V193.224H141.249V234.5Z" fill="black" fill-opacity="0.8"/>
<path d="M153.632 222.117H170.142V205.608H153.632V222.117Z" fill="black" fill-opacity="0.8"/>
<path d="M129.477 221.999V192.683C129.477 189.95 129.936 187.363 131.801 185.212C133.886 182.808 136.744 181.882 139.836 181.882H155.781H170.661C171.846 181.882 171.848 180.038 170.661 180.038H140.174C137.562 180.038 135.062 180.424 132.825 181.895C129.556 184.044 127.702 187.639 127.634 191.522C127.549 196.346 127.634 201.178 127.634 206.002V221.999C127.634 223.186 129.477 223.187 129.477 221.999Z" fill="#4F299D"/>
<path d="M167.96 364.009H138.645C135.912 364.009 133.324 363.55 131.173 361.685C128.769 359.599 127.843 356.743 127.843 353.65V337.705V322.826C127.843 321.641 126 321.638 126 322.826V353.311C126 355.925 126.385 358.423 127.857 360.661C130.005 363.931 133.6 365.783 137.484 365.853C142.307 365.937 147.14 365.853 151.964 365.853H167.96C169.147 365.853 169.149 364.009 167.96 364.009Z" fill="#4F299D"/>
<path d="M309.081 322.534V351.85C309.081 354.583 308.624 357.168 306.758 359.32C304.673 361.724 301.816 362.65 298.724 362.65H282.778H267.898C266.713 362.65 266.712 364.494 267.898 364.494H298.385C300.997 364.494 303.497 364.108 305.734 362.638C309.005 360.487 310.856 356.892 310.925 353.011C311.01 348.187 310.925 343.355 310.925 338.531V322.534C310.925 321.347 309.081 321.346 309.081 322.534Z" fill="#4F299D"/>
<path d="M268.433 181.882H297.747C300.481 181.882 303.067 182.341 305.219 184.206C307.623 186.29 308.55 189.147 308.55 192.239V208.186V223.065C308.55 224.25 310.393 224.253 310.393 223.065V192.579C310.393 189.966 310.007 187.467 308.535 185.229C306.387 181.959 302.791 180.107 298.909 180.038C294.085 179.953 289.253 180.038 284.429 180.038H268.433C267.246 180.038 267.243 181.882 268.433 181.882Z" fill="#4F299D"/>
</g>
<defs>
<filter id="filter0_d_1994_267" x="73" y="0" width="290.572" height="553.527" filterUnits="userSpaceOnUse" color-interpolation-filters="sRGB">
<feFlood flood-opacity="0" result="BackgroundImageFix"/>
<feColorMatrix in="SourceAlpha" type="matrix" values="0 0 0 0 0 0 0 0 0 0 0 0 0 0 0 0 0 0 127 0" result="hardAlpha"/>
<feOffset dy="4"/>
<feGaussianBlur stdDeviation="10"/>
<feColorMatrix type="matrix" values="0 0 0 0 0 0 0 0 0 0 0 0 0 0 0 0 0 0 0.08 0"/>
<feBlend mode="normal" in2="BackgroundImageFix" result="effect1_dropShadow_1994_267"/>
<feBlend mode="normal" in="SourceGraphic" in2="effect1_dropShadow_1994_267" result="shape"/>
</filter>
</defs>
</svg>
